<svg id="Layer_1" data-name="Layer 1" xmlns="http://www.w3.org/2000/svg" viewBox="0 0 60.43 35.95"><defs><style>.cls-1{fill:#fefefe;}.cls-2{fill:#8f8f8f;}</style></defs><title>icon</title><path class="cls-1" d="M39.45,36.6H55.53a5.41,5.41,0,0,0,5.15-2.77c1.75-3.14,1.41-8.69-3.72-10.35-.55-.18-.91-.27-.93-1-.13-6.16-6.1-9.95-12.23-7.73a1.21,1.21,0,0,1-1.65-.47,10,10,0,0,0-8.49-4c-5.29.2-8.84,3.31-10.08,8.57a1.9,1.9,0,0,1-1.84,1.73c-3.41.53-6.06,2.74-6.43,5.52-.77,5.7,1.55,10.47,8.49,10.51C29,36.62,34.23,36.6,39.45,36.6Z" transform="translate(-1.2 -0.66)"/><path class="cls-1" d="M14.58,34c-.23-.54-.4-.93-.55-1.31-2.29-5.83-.42-11.5,6.08-13.45a2.7,2.7,0,0,0,2.06-2.13,12.4,12.4,0,0,1,11.89-8.7,11,11,0,0,1,8.49,3.83c.35.4.66,1,1.4.6a6.16,6.16,0,0,1,2.49-.57c.92-.12,1.08-.45.85-1.31-1.52-5.74-5.24-9.23-11-10.15C31.12,0,26.9,2,24,6.43a1.12,1.12,0,0,1-1.72.47,8.52,8.52,0,0,0-5.6-.59C11.73,7.41,8.76,11,8.49,16.37c0,.9-.22,1.14-1.1,1.36A7.92,7.92,0,0,0,1.22,25,8.39,8.39,0,0,0,5.6,33C8.43,34.53,11.46,33.83,14.58,34Z" transform="translate(-1.2 -0.66)"/><path class="cls-2" d="M39.45,36.6c-5.22,0-10.43,0-15.65,0-6.94,0-9.26-4.81-8.49-10.51.37-2.78,3-5,6.43-5.52a1.9,1.9,0,0,0,1.84-1.73c1.24-5.26,4.79-8.37,10.08-8.57a10,10,0,0,1,8.49,4,1.21,1.21,0,0,0,1.65.47c6.13-2.22,12.1,1.57,12.23,7.73,0,.72.38.81.93,1,5.13,1.66,5.47,7.21,3.72,10.35a5.41,5.41,0,0,1-5.15,2.77Z" transform="translate(-1.2 -0.66)"/><path class="cls-2" d="M14.58,34c-3.12-.2-6.15.5-9-1.07a8.39,8.39,0,0,1-4.38-8,7.92,7.92,0,0,1,6.17-7.25c.88-.22,1.06-.46,1.1-1.36.27-5.35,3.24-9,8.17-10.06a8.52,8.52,0,0,1,5.6.59A1.12,1.12,0,0,0,24,6.43C26.9,2,31.12,0,36.28.84c5.77.92,9.49,4.41,11,10.15.23.86.07,1.19-.85,1.31a6.16,6.16,0,0,0-2.49.57c-.74.44-1.05-.2-1.4-.6a11,11,0,0,0-8.49-3.83,12.4,12.4,0,0,0-11.89,8.7,2.7,2.7,0,0,1-2.06,2.13c-6.5,1.95-8.37,7.62-6.08,13.45C14.18,33.1,14.35,33.49,14.58,34Z" transform="translate(-1.2 -0.66)"/></svg>